<?xml version="1.0" encoding="UTF-8"?>
<svg id="Layer_2" data-name="Layer 2" xmlns="http://www.w3.org/2000/svg" viewBox="0 0 246.8423 81.9511">
  <defs>
    <style>
      .cls-1, .cls-2 {
        fill: silver;
      }

      .cls-3 {
        isolation: isolate;
      }

      .cls-4 {
        fill: #0b0a0a;
      }

      .cls-2 {
        stroke: silver;
        stroke-miterlimit: 10;
      }
    </style>
  </defs>
  <g id="_4K" data-name="4K">
    <g id="BG">
      <path class="cls-4" d="M39.6961,0h167.4501c21.9236,0,39.6961,17.2585,39.6961,38.548v4.8551c0,21.2895-17.7725,38.548-39.6961,38.548H39.6961C17.7725,81.9511,0,64.6926,0,43.4031v-4.8551C0,17.2585,17.7725,0,39.6961,0Z"/>
    </g>
    <g id="Text" class="cls-3">
      <path class="cls-1" d="M57.02,20.3707h8.1235l-4.5684,22.8223h5.6055l-1.3794,6.6504h-5.5562l-1.7515,8.7598h-10.5669l1.6978-8.7598h-21.6211l1.3779-6.6504,28.6387-22.8223ZM37.5415,43.6617h11.8403l2.2305-11.0449-14.0708,11.0449Z"/>
      <path class="cls-1" d="M75.6899,20.1363h10.6299l-2.8804,15.064,20.2603-15.064h13.6875l-25.915,19.3213,16.8589,19.1455h-11.5322l-14.7461-16.7471-3.29,16.7471h-10.8291l7.7563-38.4668Z"/>
    </g>
    <g id="Text-2" data-name="Text" class="cls-3">
      <path class="cls-1" d="M138.728,28.4722h6.4473l-2.8013,14.4326c-.0635.4336-.0947.75-.0947.9492,0,2.4722,1.7861,3.708,5.3594,3.708,2.2192,0,3.9033-.5127,5.0522-1.5381s1.9438-2.6865,2.3853-4.9834l2.4805-12.5684h6.4229l-2.3145,11.9878c-.3779,2.0391-.8467,3.665-1.4053,4.8779-.5591,1.2129-1.355,2.3003-2.3862,3.2612s-2.4722,1.7402-4.3228,2.3379-3.8228.8965-5.9175.8965c-3.7954,0-6.6968-.6592-8.7051-1.9775-2.0078-1.3184-3.0117-3.2256-3.0117-5.7217,0-.9141.1021-1.8633.3071-2.8477l2.5044-12.8145Z"/>
      <path class="cls-1" d="M166.499,28.4722h6.4473l-1.6377,8.6484h11.6348l1.6992-8.6484h6.4473l-4.5605,23.0801h-6.4224l1.9106-9.7207h-11.7114l-1.9204,9.7207h-6.4224l4.5356-23.0801Z"/>
      <path class="cls-1" d="M194.955,28.4722h7.9849c2.0474,0,4.2329.334,6.5562,1.002,2.3228.668,4.2051,1.8369,5.646,3.5068,1.4414,1.6699,2.1616,3.6357,2.1616,5.8975,0,2.0156-.5078,3.8789-1.5234,5.5898-1.0161,1.7109-2.4062,3.1201-4.1699,4.2275-1.7642,1.1074-3.5044,1.8604-5.2212,2.2588s-3.7407.5977-6.0713.5977h-9.9224l4.5596-23.0801ZM200.4712,33.1832l-2.6436,13.623h2.3599c3.7754,0,6.458-.748,8.0474-2.2441,1.5884-1.4961,2.3833-3.4175,2.3833-5.7642,0-1.7251-.7241-3.0918-2.1709-4.1011-1.4473-1.0093-3.4297-1.5137-5.9463-1.5137h-2.0298Z"/>
    </g>
    <path class="cls-2" d="M125.4212,15.8669v50.2172"/>
  </g>
</svg>